<?xml version="1.0" encoding="utf-8"?><svg xmlns="http://www.w3.org/2000/svg" viewBox="0 0 81.36 81.36"><path style="fill:none;stroke:#FFFFFF;stroke-miterlimit:10;" d="M77.18,72.582c0,2.209-1.791,3.999-4,3.999h-64 c-2.209,0-4-1.79-4-3.999v-64c0-2.209,1.791-4,4-4h64c2.209,0,4,1.791,4,4V72.582z"/><radialGradient id="SVGID_1_" cx="41.1797" cy="40.5811" r="35.9998" gradientUnits="userSpaceOnUse"><stop offset="0.546" style="stop-color:#34063F"/><stop offset="1" style="stop-color:#080000"/></radialGradient><path style="fill:url(#SVGID_1_);" d="M77.18,72.582c0,2.209-1.791,3.999-4,3.999h-64c-2.209,0-4-1.79-4-3.999v-64 c0-2.209,1.791-4,4-4h64c2.209,0,4,1.791,4,4V72.582z"/><linearGradient id="SVGID_2_" gradientUnits="userSpaceOnUse" x1="-925.1416" y1="214.834" x2="-891.8914" y2="245.2344" gradientTransform="matrix(-1 0 0 -1 -879.9414 258.9004)"><stop offset="0" style="stop-color:#FFFFFF"/><stop offset="0.0629" style="stop-color:#DDDEDF;stop-opacity:0.9371"/><stop offset="0.1601" style="stop-color:#B3B5B7;stop-opacity:0.8399"/><stop offset="0.2621" style="stop-color:#909294;stop-opacity:0.7379"/><stop offset="0.3668" style="stop-color:#737578;stop-opacity:0.6332"/><stop offset="0.475" style="stop-color:#5B5C5E;stop-opacity:0.525"/><stop offset="0.5878" style="stop-color:#454547;stop-opacity:0.4122"/><stop offset="0.7072" style="stop-color:#2A292A;stop-opacity:0.2928"/><stop offset="0.8376" style="stop-color:#0D0D0E;stop-opacity:0.1624"/><stop offset="1" style="stop-color:#000000;stop-opacity:0"/></linearGradient><path style="opacity:0.2;fill:url(#SVGID_2_);" d="M9.57,69.257c0,0,63.406-28.256,63.406-55.271c0-4.844-5.813-5.813-5.813-5.813 s-47.461,0-50.367,0S9.57,11.08,9.57,14.955S9.57,69.257,9.57,69.257z"/><g><linearGradient id="SVGID_3_" gradientUnits="userSpaceOnUse" x1="-925.1416" y1="215.5244" x2="-891.8914" y2="245.9248" gradientTransform="matrix(-1 0 0 -1 -879.9414 258.9004)"><stop offset="0" style="stop-color:#FFFFFF"/><stop offset="0.0629" style="stop-color:#DDDEDF;stop-opacity:0.9371"/><stop offset="0.1601" style="stop-color:#B3B5B7;stop-opacity:0.8399"/><stop offset="0.2621" style="stop-color:#909294;stop-opacity:0.7379"/><stop offset="0.3668" style="stop-color:#737578;stop-opacity:0.6332"/><stop offset="0.475" style="stop-color:#5B5C5E;stop-opacity:0.525"/><stop offset="0.5878" style="stop-color:#454547;stop-opacity:0.4122"/><stop offset="0.7072" style="stop-color:#2A292A;stop-opacity:0.2928"/><stop offset="0.8376" style="stop-color:#0D0D0E;stop-opacity:0.1624"/><stop offset="1" style="stop-color:#000000;stop-opacity:0"/></linearGradient><path style="opacity:0.2;fill:url(#SVGID_3_);" d="M9.57,68.566c0,0,63.406-28.256,63.406-55.271c0-4.844-5.813-5.813-5.813-5.813 s-47.461,0-50.367,0S9.57,10.388,9.57,14.261C9.57,18.136,9.57,68.566,9.57,68.566z"/></g><g><path style="fill:#FFFFFF;" d="M22.003,43.508l-1.881,5.697h-2.418l6.153-18.111h2.821l6.181,18.111H30.36l-1.935-5.697H22.003z M27.941,41.681l-1.773-5.213c-0.402-1.182-0.672-2.257-0.94-3.305h-0.054c-0.269,1.075-0.564,2.177-0.913,3.278l-1.773,5.24 H27.941z"/><path style="fill:#FFFFFF;" d="M38.446,43.508l-1.881,5.697h-2.418l6.153-18.111h2.821l6.181,18.111h-2.499l-1.935-5.697H38.446z M44.385,41.681l-1.773-5.213c-0.402-1.182-0.672-2.257-0.94-3.305h-0.054c-0.269,1.075-0.564,2.177-0.913,3.278l-1.773,5.24 H44.385z"/><path style="fill:#FFFFFF;" d="M61.501,49.205l-2.311-4.004c-0.94-1.531-1.531-2.526-2.096-3.574h-0.054 c-0.511,1.048-1.021,2.016-1.962,3.601l-2.177,3.977h-2.687l5.535-9.163l-5.32-8.948h2.714l2.392,4.246 c0.672,1.182,1.183,2.096,1.666,3.063h0.081c0.51-1.075,0.967-1.908,1.639-3.063l2.472-4.246h2.688l-5.509,8.813l5.644,9.297 H61.501z"/></g></svg>