<?xml version="1.0" encoding="utf-8"?><svg xmlns="http://www.w3.org/2000/svg" viewBox="0 0 560 560"><path fill="#333" d="M305.437,183.983v-4.634l-14.405,0.989c-4.078,0.257-7.142,1.125-9.203,2.588c-2.059,1.477-3.089,3.524-3.089,6.139 c0,2.548,1.019,4.581,3.063,6.086c2.033,1.516,4.77,2.262,8.186,2.262c2.182,0,4.227-0.338,6.11-1.002 c1.884-0.664,3.539-1.6,4.919-2.792c1.383-1.179,2.467-2.588,3.241-4.228C305.043,187.751,305.437,185.949,305.437,183.983z M281.75,27.5C139.035,27.5,26,140.535,26,283.25C26,425.977,139.035,539,281.75,539c142.714,0,255.75-113.023,255.75-255.75 C537.5,140.535,424.477,27.5,281.75,27.5z M331.686,164.077c1.328-3.727,3.196-6.925,5.625-9.581 c2.425-2.656,5.337-4.703,8.752-6.139c3.415-1.438,7.224-2.155,11.411-2.155c3.78,0,7.195,0.569,10.232,1.694 c3.048,1.124,5.649,2.642,7.831,4.553c2.182,1.911,3.917,4.132,5.19,6.681c1.274,2.548,2.034,5.244,2.29,8.077h-11.289 c-0.284-1.56-0.799-3.021-1.529-4.364c-0.732-1.341-1.693-2.507-2.887-3.496c-1.206-0.99-2.615-1.762-4.229-2.317 c-1.627-0.569-3.442-0.84-5.488-0.84c-2.399,0-4.58,0.487-6.519,1.45c-1.95,0.961-3.619,2.33-5,4.092 c-1.382,1.763-2.452,3.916-3.212,6.437c-0.771,2.534-1.152,5.34-1.152,8.429c0,3.198,0.381,6.07,1.152,8.591 c0.76,2.534,1.843,4.661,3.252,6.409c1.396,1.748,3.09,3.088,5.056,4.011c1.963,0.921,4.134,1.396,6.49,1.396 c3.862,0,7.006-0.908,9.446-2.725c2.438-1.815,4.009-4.472,4.742-7.966h11.302c-0.325,3.088-1.179,5.907-2.56,8.454 c-1.385,2.549-3.174,4.718-5.37,6.52c-2.208,1.802-4.796,3.197-7.776,4.174c-2.98,0.976-6.261,1.477-9.823,1.477 c-4.229,0-8.037-0.705-11.468-2.102c-3.414-1.395-6.354-3.415-8.794-6.029c-2.438-2.616-4.321-5.801-5.65-9.554 c-1.328-3.754-1.992-7.968-1.992-12.672C329.692,171.991,330.356,167.816,331.686,164.077L331.686,164.077z M171.061,146.975h11.302 v10.042h0.217c0.691-1.667,1.598-3.17,2.709-4.472c1.111-1.316,2.386-2.426,3.849-3.362c1.45-0.934,3.063-1.639,4.797-2.127 c1.748-0.487,3.591-0.732,5.516-0.732c4.146,0,7.657,0.988,10.501,2.968c2.86,1.978,4.893,4.824,6.086,8.537h0.284 c0.759-1.79,1.763-3.388,2.995-4.798c1.233-1.409,2.656-2.629,4.256-3.631c1.599-1.004,3.36-1.763,5.271-2.291 c1.911-0.528,3.917-0.786,6.03-0.786c2.914,0,5.557,0.46,7.941,1.395c2.385,0.935,4.418,2.236,6.112,3.931 c1.693,1.693,2.994,3.752,3.902,6.166c0.909,2.413,1.37,5.095,1.37,8.049v40.397h-11.79v-37.564c0-3.889-1.003-6.911-3.009-9.039 c-1.992-2.127-4.852-3.197-8.565-3.197c-1.814,0-3.483,0.326-5,0.961c-1.504,0.637-2.818,1.53-3.902,2.683 c-1.098,1.139-1.951,2.521-2.561,4.121c-0.624,1.598-0.935,3.347-0.935,5.244v36.792H206.81v-38.539c0-1.708-0.271-3.253-0.8-4.634 c-0.527-1.382-1.273-2.562-2.261-3.55c-0.977-0.99-2.183-1.735-3.579-2.264c-1.409-0.528-2.98-0.8-4.729-0.8 c-1.815,0-3.496,0.338-5.055,1.017c-1.544,0.678-2.872,1.612-3.983,2.805c-1.111,1.206-1.979,2.615-2.588,4.254 c-0.597,1.627-1.573,3.415-1.573,5.338v36.36h-11.179v-59.273H171.061z M196.713,430.729c-51.834,0-84.344-36.022-84.344-93.505 c0-57.485,32.51-93.629,84.344-93.629c51.835,0,84.223,36.144,84.223,93.629C280.936,394.693,248.548,430.729,196.713,430.729z M292.686,206.114c-1.911,0.487-3.862,0.733-5.87,0.733c-2.954,0-5.65-0.422-8.103-1.261c-2.467-0.841-4.567-2.021-6.33-3.551 c-1.761-1.531-3.144-3.375-4.119-5.542c-0.989-2.169-1.476-4.581-1.476-7.237c0-5.204,1.937-9.269,5.813-12.195 c3.877-2.927,9.487-4.634,16.844-5.11l15.991-0.921v-4.58c0-3.415-1.084-6.031-3.253-7.806c-2.169-1.776-5.229-2.67-9.201-2.67 c-1.599,0-3.102,0.204-4.485,0.597c-1.383,0.406-2.602,0.975-3.66,1.721c-1.057,0.746-1.938,1.64-2.616,2.683 c-0.69,1.029-1.165,2.194-1.421,3.469h-11.086c0.068-2.615,0.718-5.041,1.938-7.263c1.221-2.223,2.874-4.147,4.975-5.786 c2.102-1.64,4.553-2.914,7.397-3.822c2.848-0.909,5.937-1.368,9.282-1.368c3.606,0,6.874,0.448,9.798,1.368 c2.929,0.922,5.436,2.209,7.508,3.903c2.072,1.694,3.672,3.727,4.798,6.112c1.126,2.384,1.692,5.055,1.692,7.995v40.668h-11.288 v-9.88h-0.283c-0.843,1.599-1.897,3.049-3.187,4.337c-1.3,1.287-2.752,2.398-4.363,3.306 C296.357,204.921,294.595,205.625,292.686,206.114L292.686,206.114z M367.258,430.729c-39.531,0-66.401-20.708-68.272-53.218h25.734 c2.005,18.579,19.961,30.884,44.558,30.884c23.593,0,40.545-12.305,40.545-29.122c0-14.554-10.299-23.348-34.135-29.365 l-23.229-5.771c-33.391-8.282-48.569-23.473-48.569-48.447c0-30.748,26.861-52.094,65.142-52.094 c37.403,0,63.503,21.467,64.507,52.336h-25.477c-1.765-18.579-16.943-30.002-39.544-30.002c-22.47,0-38.027,11.546-38.027,28.241 c0,13.173,9.784,20.965,33.635,26.982l19.581,4.892c37.28,9.039,52.594,23.729,52.594,50.084 C436.289,409.765,409.686,430.729,367.258,430.729L367.258,430.729z M196.713,266.674c-35.518,0-57.729,27.239-57.729,70.535 c0,43.177,22.211,70.414,57.729,70.414c35.398,0,57.729-27.237,57.729-70.414C254.455,293.913,232.11,266.674,196.713,266.674 L196.713,266.674z"/></svg> 